Coordinates
version=1
nRows=8
nColumns=33
inDegrees=yes

Units are S.I. units (second, meters, Newtons, ...)
If the header above contains a line with 'inDegrees', this indicates whether rotational values are in degrees (yes) or radians (no).

endheader
time	pelvis_tilt	pelvis_list	pelvis_rotation	pelvis_tx	pelvis_ty	pelvis_tz	hip_flexion_r	hip_adduction_r	hip_rotation_r	knee_angle_r	knee_angle_r_beta	ankle_angle_r	subtalar_angle_r	mtp_angle_r	hip_flexion_l	hip_adduction_l	hip_rotation_l	knee_angle_l	knee_angle_l_beta	lumbar_extension	lumbar_bending	lumbar_rotation	arm_flex_r	arm_add_r	arm_rot_r	elbow_flex_r	pro_sup_r	arm_flex_l	arm_add_l	arm_rot_l	elbow_flex_l	pro_sup_l
      0.85833330	    -22.04753745	     -4.01419993	      0.39489010	     -1.61311067	      0.92199045	     -0.57056056	     60.88510716	     -3.34256928	     -7.24641016	     94.08045617	      1.64201372	    -16.85159311	     -0.54082743	     -7.49999987	     31.22814004	    -12.69108548	      2.02777088	     43.00840348	      0.75063825	    -26.77936238	     -0.28955972	     -9.00980018	    -34.40752763	    -24.78758522	     -8.41928933	     32.36276687	     95.62449318	     60.41930797	    -13.40059845	    381.30112680	     80.73708944	     91.48037886
      0.86250000	    -22.67796753	     -3.91779163	     -0.47343982	     -1.59590133	      0.92175877	     -0.56963028	     63.54350085	     -2.79175214	     -6.36292987	     93.63661254	      1.63426719	    -16.91116532	     -1.51370359	     -7.49999987	     30.24866460	    -13.35838529	      0.53284920	     41.87118825	      0.73079010	    -25.99544468	     -0.27646588	     -8.86283307	    -37.32491477	    -25.92420434	     -9.25461588	     33.34097696	     94.71982212	     63.26297778	    -13.03609546	    381.13440819	     81.15683300	     91.17012326
      0.86666670	    -23.24873434	     -3.67545300	     -1.04121253	     -1.57849233	      0.92001294	     -0.56884063	     66.05598188	     -2.53079002	     -5.59742592	     93.18551813	      1.62639411	    -16.19862786	     -2.49626206	     -7.49999987	     29.44970836	    -13.62376078	     -0.34730459	     40.97386413	      0.71512884	    -25.24086033	     -0.24372008	     -9.02306205	    -40.07131886	    -26.92124808	     -9.74068171	     34.07546595	     93.55917889	     65.80541448	    -13.01188456	    381.05368043	     82.01783390	     90.57800880
      0.87083330	    -23.77012730	     -3.87821791	     -2.27635627	     -1.56047351	      0.92062743	     -0.56813162	     68.24006591	     -1.57328356	     -5.21486808	     92.08366563	      1.60716315	    -16.81990457	     -3.73587894	     -7.49999987	     27.41920010	    -14.44873982	     -1.94267644	     38.37025902	      0.66968735	    -24.60602462	      0.04526683	     -8.29054598	    -42.50082439	    -27.94168556	    -10.47239577	     34.22675540	     92.78058430	     67.91440743	    -12.66476005	    380.63751518	     82.92154478	     91.39104898
      0.87500000	    -24.38634891	     -3.97359415	     -3.15305343	     -1.54253015	      0.91929192	     -0.56697344	     70.41771539	     -1.07817773	     -5.01543876	     90.87473083	      1.58606326	    -16.08845478	     -4.47491609	     -7.49999987	     26.06627919	    -14.99968126	     -3.00325732	     36.46717761	      0.63647232	    -23.79246363	      0.40577489	     -8.08618569	    -43.45331912	    -28.70252674	    -10.40438982	     33.32725225	     92.71732256	     69.46357177	    -12.88666800	    380.13946079	     84.52103763	     91.75466608
      0.87916670	    -25.02002887	     -3.77406154	     -3.88852339	     -1.52439792	      0.92108494	     -0.56537210	     72.40415049	     -0.60439473	     -4.71127889	     89.44920235	      1.56118309	    -15.52324615	     -6.40867363	     -7.49999987	     24.66832261	    -15.16533954	     -4.08420116	     34.10830457	      0.59530222	    -23.00726168	      0.37349439	     -7.72284240	    -45.25910923	    -29.70196412	     -8.13145783	     32.15374541	     87.23419395	     71.37942724	    -12.82022877	    380.35084762	     85.70198413	     90.20559018
      0.88333330	    -25.80516063	     -3.59035969	     -4.61668642	     -1.50603160	      0.91887058	     -0.56409390	     74.62077432	     -0.29307795	     -4.59676641	     88.28860031	      1.54092677	    -14.71642821	     -7.74794048	     -7.49999987	     23.63069306	    -15.27780852	     -4.87772772	     32.11862481	      0.56057575	    -22.04729764	      0.50966048	     -7.09545525	    -47.31462980	    -30.20324898	     -7.86781644	     30.57730290	     87.70243689	     72.96483588	    -12.58697719	    380.16764700	     87.50413601	     91.06824338
      0.88750000	    -26.65477727	     -3.56028699	     -5.27451824	     -1.48745340	      0.91957524	     -0.56266677	     76.51167546	      0.03099554	     -4.74552064	     86.56088121	      1.51077238	    -13.89184737	     -9.35937497	     -7.49999987	     22.68352966	    -15.47590708	     -5.56727580	     29.84598284	      0.52091067	    -20.99668333	      0.81116165	     -6.30709454	    -48.54781084	    -30.34190323	     -7.30468527	     28.30672210	     88.12051776	     74.45462705	    -12.23598092	    380.17946024	     89.03240843	     91.90654819
